<svg width="121" height="22" viewBox="0 0 121 22" fill="none" xmlns="http://www.w3.org/2000/svg">
<path d="M11 0L13.4697 7.60081H21.4616L14.996 12.2984L17.4656 19.8992L11 15.2016L4.53436 19.8992L7.00402 12.2984L0.538379 7.60081H8.53035L11 0Z" fill="#FDCC0D"></path>
<path d="M36 0L38.4697 7.60081H46.4616L39.996 12.2984L42.4656 19.8992L36 15.2016L29.5344 19.8992L32.004 12.2984L25.5384 7.60081H33.5303L36 0Z" fill="#FDCC0D"></path>
<path d="M61 0L63.4697 7.60081H71.4616L64.996 12.2984L67.4656 19.8992L61 15.2016L54.5344 19.8992L57.004 12.2984L50.5384 7.60081H58.5303L61 0Z" fill="#FDCC0D"></path>
<path d="M85 0L87.4697 7.60081H95.4616L88.996 12.2984L91.4656 19.8992L85 15.2016L78.5344 19.8992L81.004 12.2984L74.5384 7.60081H82.5303L85 0Z" fill="#FDCC0D"></path>
<path d="M110 0L112.47 7.60081H120.462L113.996 12.2984L116.466 19.8992L110 15.2016L103.534 19.8992L106.004 12.2984L99.5384 7.60081H107.53L110 0Z" fill="#FDCC0D"></path>
</svg>